<svg xmlns="http://www.w3.org/2000/svg" width="1000" height="600"><path d="M1000 600V400H0v200" color="#000" fill="#ffce00"/><path d="M1000 400V200H0v200" color="#000" fill="#d00000"/><path d="M1000 200V0H0v200" color="#000"/><g fill-rule="evenodd" stroke="#000"><path d="M-6.332 361.822V184.695h-218.414v177.127c0 57.006 56.315 105.869 109.205 105.869 52.892 0 109.21-48.863 109.21-105.869z" fill="#ffce00" stroke-width="4.067" transform="matrix(.9886 0 0 .9887 600.196 -22.505)"/><path d="M-154.374 381.113c-.28-2.016-7.839.476-5.229 2.3 3.974 2.783.433 5.556.61 8.702 5.182-2.924 5.165-7.073 4.62-11.002zm-26.66 17.606c-.032-2.033 7.82-.739 5.521 1.468-3.498 3.362.425 5.554.732 8.692-5.566-2.091-6.188-6.191-6.253-10.16zm-20.376-11.782c1.02-1.757 7.073 3.42 3.97 4.12-4.73 1.064-2.503 4.973-3.856 7.817-3.689-4.674-2.106-8.506-.114-11.937zm3.421-17.004c1.952-.553 2.718 7.387 0 5.725-4.14-2.526-5.247 1.837-8.192 2.938.587-5.93 4.381-7.582 8.192-8.663z" stroke-width="2.034" transform="matrix(.9886 0 0 .9887 600.196 -22.505)"/><path d="M-146.208 352.251c-11.928 9.27-22.016 14.16-28.114 15.815-5.813 1.576-10.35 1.377-20.918-.336-4.236-.684-3.525 3.062-3.291 5.803.272 3.176-3.783 5.511 9.098 4.035-3.392 3.368-12.277 4.459-13 8.964-.202 1.263 1.777.7 2.15 1.82.803 2.411.647 4.37 3.767 4.095 8.08-4.225 12.79-6.468 14.244-9.59-.386 6.182-2.426 13.279-.427 17.261.985 1.955 2.757-.684 4.469-.668 1.396.013 2.754 3.003 3.612 1.733 4.84-7.177-.528-17.513 5.952-23.863 2.864 3.63 7.469 12.863 8.503 8.948 1.147-4.341 3.538-5.579 6.516-5.565 2.535.01-4.936-4.99-8.003-7.645 9.37-5.885 19.38-12.596 20.821-15.074" fill="#d00000" stroke-width="2.034" stroke-linecap="round" stroke-linejoin="round" transform="matrix(.9886 0 0 .9887 600.196 -22.505)"/><path d="M-33.637 369.933c-1.952-.553-2.718 7.387 0 5.725 4.14-2.526 5.247 1.837 8.192 2.938-.587-5.93-4.381-7.582-8.192-8.663zm3.42 17.004c-1.02-1.757-7.072 3.42-3.969 4.12 4.731 1.064 2.503 4.973 3.856 7.817 3.69-4.674 2.106-8.506.116-11.937zm-20.377 11.782c.034-2.033-7.817-.739-5.52 1.468 3.499 3.362-.424 5.554-.73 8.692 5.565-2.091 6.187-6.192 6.252-10.16zm-26.658-17.606c.28-2.016 7.84.476 5.23 2.3-3.975 2.783-.434 5.556-.613 8.702-5.18-2.924-5.163-7.073-4.617-11.002z" stroke-width="2.034" transform="matrix(.9886 0 0 .9887 600.196 -22.505)"/><path d="M-85.115 352.251c11.924 9.27 21.713 14.16 27.813 15.815 5.81 1.576 10.347 1.377 20.916-.336 4.236-.684 3.525 3.062 3.291 5.803-.272 3.176 3.783 5.511-9.098 4.035 3.392 3.368 12.28 4.459 13 8.964.202 1.263-1.777.7-2.15 1.82-.803 2.411-.647 4.37-3.767 4.095-8.08-4.225-12.79-6.468-14.244-9.59.386 6.182 2.426 13.279.427 17.261-.985 1.955-2.757-.684-4.469-.668-1.396.013-2.754 3.003-3.612 1.733-4.838-7.177.528-17.513-5.952-23.863-2.864 3.63-7.469 12.863-8.503 8.948-1.147-4.341-3.538-5.579-6.516-5.565-2.535.01 4.936-4.99 8.003-7.645-9.37-5.885-20.583-13.498-22.024-15.978" fill="#d00000" stroke-width="2.034" stroke-linecap="round" stroke-linejoin="round" transform="matrix(.9886 0 0 .9887 600.196 -22.505)"/><path d="M-80.486 246.043c2.222-5.066 4.501-10.124 10.648-14.628-9.993-14.554 10.436-20.451 20.184-17.676 7.658 2.18 15.31 8.645 27.276 14.628-2.9 30.585 3.8 63.636 7.606 91.427l-13.475-5.575-6.3-48.976c-.78-6.245-6.906-8.771-5.172 3.962l12.778 93.85-14.656-3.926-9.379-82c-.77-7.222-6.88-3.542-6.388 1.523l7.91 81.37-12.17-4.876-6.084-73.751c-.321-3.888-6.862-6.497-6.39 1.524l3.652 61.865-7.91-7.01-2.738-51.503c-.281-5.284-6.824-2.689-6.641 2.438l1.469 41.142-8.215-7.314-.912-21.333c-.317-7.408-3.644-5.825-4.438-.43-1.243 8.449-3.82 22.112-.289 26.03 6.585 7.304 17.609 16.08 30.565 24.41 4.453 2.864-11.114 3.967-16.711 1.799.373 9.507-1.09 19.19-2.523 16.703-5.443-9.449-9.319-17.751-17.557-23.103-.082 12.147 7.604 22.663 20.673 33.523-4.436 2.418-9.64 2.59-14.32 2.884 7.182 6.916 11.998 7.879 21.548 7.188l-.216 6.385c8.387 2.172 10.692 8 7.606 17.066-2.112-5.74-5.59-9.692-10.27-5.916 1.172 13.973-18.084-8.135-26.437-11.655 1.786 12.295 8.037 18.833 20.494 24.097-4.75 5.273-13.87 8.208-19.686 4.14 1.998 14.533-1.46 21.136-13.17 26.5 4.704-12.463-8.128-13.795-6.13-28.328-5.816 4.067-12.806 2.961-17.557-2.312 12.457-5.264 18.708-11.802 20.495-24.097-8.353 3.52-27.61 25.628-26.438 11.655-4.68-3.776-8.158.175-10.27 5.916-3.086-9.067-.781-14.894 7.606-17.066l-.215-6.385c9.549.69 14.365-.272 21.548-7.188-4.68-.294-9.885-.466-14.32-2.884 13.068-10.86 20.754-21.376 20.672-33.523-8.238 5.352-12.113 13.654-17.557 23.103-1.433 2.487-2.896-7.196-2.523-16.703-5.597 2.168-21.164 1.065-16.71-1.798 12.955-8.33 23.98-17.107 30.564-24.411 3.532-3.918.954-17.581-.29-26.03-.793-5.395-4.12-6.978-4.437.43l-.912 21.333-8.215 7.314 1.47-41.142c.182-5.127-6.36-7.722-6.641-2.438l-2.739 51.504-7.91 7.01 3.651-61.866c.474-8.02-6.068-5.412-6.389-1.524l-6.084 73.751-12.17 4.876 7.91-81.37c.493-5.065-5.618-8.745-6.388-1.524l-9.38 82.001-14.655 3.925 12.778-93.85c1.734-12.732-4.392-10.206-5.172-3.961l-6.3 48.976-13.475 5.575c3.806-27.791 10.506-60.842 7.606-91.427 11.965-5.983 19.619-12.448 27.276-14.628 9.749-2.775 30.177 3.122 20.184 17.676 6.147 4.504 8.426 9.562 10.648 14.628 7.527-.245 11.32 1.648 14.907 3.657 3.409-4.953 9.338-10.773 12.747-21.067 3.394-2.702 4.985-4.646 8.38-3.337-2.963-4.963-7.2-16.973-10.578-22.908-2.757-4.843-3.34-5.214-6.008-7.244 14.916-6.373 23.624 3.18 38.84 2.36-2.916 2.414-2.1 3.322-8.97 5.737 7.642 1.27 5.572 13.773 5.972 21.483.423 8.107 5.933 17.452-.09 24.976 3.588-2.01 7.38-3.902 14.907-3.657z" stroke-width="2.034" stroke-linecap="round" stroke-linejoin="round" transform="matrix(.9886 0 0 .9887 600.196 -22.505)"/><path d="M-127.728 198.26c4.513 6.557 9.051 16.922 11.36 25.384-1.902 2.62-6.335 5.392-11.6 6.028-3.965.479-8.97-2.497-9.459-5.144 7.227 1.15 14.289 1.4 21.059-.884-9.096 3.555-29.243 1.483-32.705-4.724 13.086 2.205 25.586 2.967 27.448-.684-4.88-9.046-16.766-11.34-22.548-4.742-.314-10.533 3.422-17.253 16.445-15.234z" fill="#d00000" stroke-width="2.038" stroke-linecap="round" stroke-linejoin="round" transform="matrix(.9886 0 0 .9887 600.196 -22.505)"/><path d="M-121.472 198.328c.633 2.21.252 4.418 2.703 6.63 1.87-1.978 4.215-3.004 6.464-4.22-3.057-2.239-6.114-2.07-9.17-2.41z" fill="#fff" stroke-width=".61" transform="matrix(.9886 0 0 .9887 600.196 -22.505)"/></g></svg>